<?xml version="1.0" encoding="UTF-8" standalone="no"?>
<svg id="Ebene_1" xmlns:rdf="http://www.w3.org/1999/02/22-rdf-syntax-ns#" xmlns="http://www.w3.org/2000/svg" enable-background="new 0 0 198.425 85.04" xml:space="preserve" height="42.72" viewBox="0 0 114.278 42.720001" width="114.28" version="1.1" y="0px" x="0px" xmlns:cc="http://creativecommons.org/ns#" xmlns:dc="http://purl.org/dc/elements/1.1/"><metadata id="metadata69"><rdf:RDF><cc:Work rdf:about=""><dc:format>image/svg+xml</dc:format><dc:type rdf:resource="http://purl.org/dc/dcmitype/StillImage"/><dc:title/></cc:Work></rdf:RDF></metadata><g id="g3" transform="translate(-41.683,-22.625)"><g id="g5"><path id="path7" d="m97.13 53.78h-0.412v-5.66h0.412v5.66z"/><path id="path9" d="m98.811 53.78v-3.98h0.208c0.069 0 0.109 0.033 0.12 0.1l0.036 0.6c0.181-0.229 0.393-0.414 0.634-0.554s0.51-0.21 0.806-0.21c0.218 0 0.411 0.035 0.578 0.104s0.305 0.169 0.414 0.3 0.192 0.288 0.248 0.472 0.084 0.392 0.084 0.624v2.544h-0.38v-2.544c0-0.374-0.085-0.666-0.256-0.878s-0.432-0.318-0.784-0.318c-0.261 0-0.504 0.067-0.728 0.202s-0.424 0.319-0.6 0.554v2.984h-0.38z"/><path id="path11" d="m105.37 50.296c-0.019 0.037-0.048 0.056-0.088 0.056-0.029 0-0.067-0.017-0.114-0.05s-0.108-0.071-0.184-0.112c-0.076-0.042-0.169-0.079-0.28-0.112-0.11-0.033-0.246-0.05-0.406-0.05-0.144 0-0.275 0.021-0.394 0.062s-0.22 0.096-0.304 0.166c-0.084 0.069-0.149 0.149-0.196 0.241s-0.07 0.188-0.07 0.289c0 0.125 0.032 0.229 0.096 0.312 0.064 0.082 0.148 0.153 0.252 0.211 0.104 0.059 0.222 0.109 0.354 0.152 0.132 0.042 0.268 0.085 0.406 0.128 0.139 0.042 0.274 0.09 0.406 0.142s0.25 0.117 0.354 0.194 0.188 0.172 0.252 0.284 0.096 0.248 0.096 0.408c0 0.173-0.031 0.335-0.094 0.484-0.062 0.149-0.153 0.279-0.272 0.388s-0.265 0.196-0.438 0.26-0.371 0.096-0.592 0.096c-0.28 0-0.521-0.044-0.724-0.134s-0.384-0.206-0.544-0.35l0.092-0.136c0.013-0.021 0.028-0.037 0.044-0.048s0.039-0.016 0.068-0.016c0.035 0 0.077 0.021 0.128 0.064s0.117 0.089 0.198 0.138 0.183 0.095 0.304 0.138c0.122 0.042 0.271 0.064 0.45 0.064 0.168 0 0.316-0.023 0.444-0.07 0.128-0.046 0.235-0.11 0.32-0.19s0.15-0.174 0.194-0.282 0.066-0.222 0.066-0.342c0-0.133-0.032-0.244-0.096-0.332s-0.148-0.163-0.252-0.224c-0.104-0.062-0.222-0.114-0.354-0.156s-0.268-0.085-0.408-0.128c-0.14-0.042-0.276-0.089-0.408-0.14s-0.25-0.115-0.354-0.192-0.188-0.171-0.252-0.282c-0.064-0.11-0.096-0.249-0.096-0.414 0-0.142 0.031-0.277 0.092-0.408s0.148-0.245 0.262-0.344c0.113-0.099 0.251-0.177 0.414-0.236s0.345-0.088 0.548-0.088c0.243 0 0.458 0.035 0.646 0.105s0.361 0.178 0.518 0.322l-0.084 0.132z"/><path id="path13" d="m107.74 53.844c-0.27 0-0.479-0.075-0.628-0.224s-0.224-0.38-0.224-0.692v-2.72h-0.572c-0.029 0-0.054-0.008-0.072-0.024-0.019-0.016-0.028-0.039-0.028-0.068v-0.148l0.68-0.048 0.095-1.424c0.003-0.024 0.013-0.045 0.03-0.064s0.04-0.028 0.069-0.028h0.178v1.52h1.252v0.284h-1.252v2.7c0 0.109 0.014 0.204 0.042 0.282 0.028 0.079 0.067 0.143 0.116 0.194s0.107 0.088 0.174 0.112 0.139 0.036 0.216 0.036c0.096 0 0.179-0.014 0.248-0.042s0.129-0.059 0.18-0.092c0.051-0.034 0.092-0.064 0.124-0.092s0.058-0.042 0.076-0.042c0.021 0 0.042 0.014 0.064 0.04l0.104 0.168c-0.102 0.112-0.23 0.202-0.386 0.27s-0.318 0.102-0.486 0.102z"/><path id="path15" d="m110.21 48.428c0 0.048-0.01 0.093-0.03 0.134s-0.046 0.078-0.078 0.11-0.069 0.057-0.112 0.076c-0.042 0.019-0.088 0.028-0.136 0.028s-0.094-0.009-0.136-0.028-0.08-0.044-0.112-0.076-0.058-0.069-0.076-0.11c-0.019-0.042-0.028-0.086-0.028-0.134s0.009-0.094 0.028-0.138 0.044-0.082 0.076-0.114 0.069-0.057 0.112-0.076c0.042-0.019 0.088-0.028 0.136-0.028s0.093 0.009 0.136 0.028 0.08 0.044 0.112 0.076 0.058 0.07 0.078 0.114 0.03 0.09 0.03 0.138zm-0.168 1.372v3.98h-0.38v-3.98h0.38z"/><path id="path17" d="m112.57 53.844c-0.27 0-0.479-0.075-0.628-0.224s-0.224-0.38-0.224-0.692v-2.72h-0.572c-0.029 0-0.054-0.008-0.072-0.024-0.019-0.016-0.028-0.039-0.028-0.068v-0.148l0.68-0.048 0.095-1.424c0.003-0.024 0.013-0.045 0.03-0.064s0.04-0.028 0.069-0.028h0.178v1.52h1.252v0.284h-1.252v2.7c0 0.109 0.014 0.204 0.042 0.282 0.028 0.079 0.067 0.143 0.116 0.194s0.107 0.088 0.174 0.112 0.139 0.036 0.216 0.036c0.096 0 0.179-0.014 0.248-0.042s0.129-0.059 0.18-0.092c0.051-0.034 0.092-0.064 0.124-0.092s0.058-0.042 0.076-0.042c0.021 0 0.042 0.014 0.064 0.04l0.104 0.168c-0.102 0.112-0.23 0.202-0.386 0.27s-0.318 0.102-0.486 0.102z"/><path id="path19" d="m114.66 49.8v2.544c0 0.374 0.085 0.666 0.257 0.878 0.171 0.212 0.432 0.318 0.782 0.318 0.26 0 0.502-0.066 0.727-0.198s0.427-0.315 0.606-0.55v-2.992h0.38v3.98h-0.209c-0.074 0-0.112-0.035-0.115-0.104l-0.036-0.592c-0.184 0.229-0.397 0.413-0.639 0.552s-0.511 0.208-0.807 0.208c-0.222 0-0.416-0.035-0.581-0.104s-0.303-0.169-0.413-0.3c-0.109-0.131-0.192-0.288-0.248-0.472s-0.084-0.392-0.084-0.624v-2.544h0.38z"/><path id="path21" d="m119.83 53.844c-0.27 0-0.479-0.075-0.628-0.224s-0.224-0.38-0.224-0.692v-2.72h-0.572c-0.029 0-0.054-0.008-0.072-0.024-0.019-0.016-0.028-0.039-0.028-0.068v-0.148l0.68-0.048 0.095-1.424c0.003-0.024 0.013-0.045 0.03-0.064s0.04-0.028 0.069-0.028h0.178v1.52h1.252v0.284h-1.252v2.7c0 0.109 0.014 0.204 0.042 0.282 0.028 0.079 0.067 0.143 0.116 0.194s0.107 0.088 0.174 0.112 0.139 0.036 0.216 0.036c0.096 0 0.179-0.014 0.248-0.042s0.129-0.059 0.18-0.092c0.051-0.034 0.092-0.064 0.124-0.092s0.058-0.042 0.076-0.042c0.021 0 0.042 0.014 0.064 0.04l0.104 0.168c-0.102 0.112-0.23 0.202-0.386 0.27s-0.318 0.102-0.486 0.102z"/><path id="path23" d="m123.14 49.736c0.224 0 0.431 0.039 0.622 0.116 0.19 0.078 0.356 0.19 0.496 0.338s0.249 0.33 0.328 0.546 0.118 0.464 0.118 0.744c0 0.059-0.009 0.099-0.026 0.12-0.018 0.021-0.044 0.032-0.082 0.032h-2.872v0.076c0 0.298 0.035 0.561 0.104 0.788s0.168 0.417 0.296 0.57 0.283 0.269 0.464 0.346c0.181 0.078 0.384 0.116 0.608 0.116 0.2 0 0.373-0.022 0.52-0.066 0.146-0.044 0.27-0.093 0.37-0.148s0.179-0.104 0.238-0.148 0.101-0.066 0.128-0.066c0.035 0 0.062 0.014 0.08 0.04l0.104 0.128c-0.064 0.08-0.149 0.155-0.254 0.224s-0.223 0.129-0.352 0.178-0.268 0.088-0.416 0.118-0.297 0.044-0.446 0.044c-0.272 0-0.52-0.047-0.744-0.142s-0.417-0.233-0.577-0.414c-0.161-0.182-0.285-0.403-0.372-0.666-0.088-0.263-0.131-0.563-0.131-0.902 0-0.286 0.041-0.549 0.122-0.79 0.081-0.242 0.199-0.45 0.352-0.624 0.153-0.175 0.341-0.312 0.564-0.41s0.475-0.148 0.758-0.148zm0.006 0.284c-0.205 0-0.389 0.032-0.551 0.096s-0.303 0.156-0.421 0.276-0.214 0.264-0.288 0.432-0.122 0.356-0.146 0.564h2.62c0-0.213-0.029-0.404-0.088-0.574s-0.141-0.313-0.248-0.43-0.234-0.208-0.384-0.27c-0.148-0.063-0.313-0.094-0.494-0.094z"/><path id="path25" d="m127.5 53.78v-3.564l-0.56-0.036c-0.077-0.005-0.116-0.039-0.116-0.1v-0.156h0.676v-0.504c0-0.227 0.029-0.426 0.088-0.598s0.142-0.315 0.248-0.43c0.107-0.114 0.235-0.201 0.386-0.258 0.15-0.057 0.316-0.086 0.498-0.086 0.083 0 0.166 0.007 0.25 0.022s0.158 0.035 0.222 0.062l-0.012 0.184c-0.003 0.037-0.028 0.056-0.076 0.056-0.032 0-0.075-0.004-0.13-0.012s-0.122-0.012-0.202-0.012c-0.13 0-0.251 0.02-0.362 0.058-0.111 0.039-0.206 0.101-0.286 0.186s-0.142 0.197-0.186 0.334-0.066 0.306-0.066 0.506v0.492h1.292v0.284h-1.284v3.572h-0.38z"/><path id="path27" d="m131.49 49.736c0.285 0 0.541 0.049 0.766 0.146s0.415 0.235 0.57 0.414 0.272 0.394 0.354 0.646 0.122 0.534 0.122 0.846-0.041 0.594-0.122 0.844-0.199 0.465-0.354 0.644-0.345 0.316-0.57 0.412c-0.226 0.096-0.481 0.144-0.766 0.144-0.286 0-0.541-0.048-0.766-0.144s-0.416-0.233-0.572-0.412-0.275-0.394-0.356-0.644c-0.082-0.25-0.122-0.532-0.122-0.844s0.041-0.594 0.122-0.846 0.2-0.467 0.356-0.646 0.347-0.317 0.572-0.414 0.48-0.146 0.766-0.146zm0 3.796c0.237 0 0.444-0.041 0.622-0.122 0.177-0.081 0.325-0.198 0.444-0.35s0.208-0.335 0.266-0.55 0.088-0.455 0.088-0.722c0-0.264-0.029-0.504-0.088-0.72s-0.147-0.401-0.266-0.554-0.267-0.271-0.444-0.354c-0.178-0.083-0.385-0.124-0.622-0.124s-0.445 0.042-0.622 0.124c-0.177 0.083-0.325 0.201-0.444 0.354s-0.208 0.338-0.268 0.554-0.09 0.456-0.09 0.72c0 0.267 0.03 0.507 0.09 0.722s0.149 0.398 0.268 0.55 0.267 0.269 0.444 0.35 0.385 0.122 0.622 0.122z"/><path id="path29" d="m134.34 53.78v-3.98h0.2c0.045 0 0.078 0.009 0.098 0.028s0.032 0.051 0.034 0.096l0.032 0.84c0.128-0.323 0.298-0.575 0.512-0.758s0.476-0.274 0.788-0.274c0.12 0 0.23 0.013 0.332 0.038 0.101 0.025 0.197 0.062 0.288 0.11l-0.052 0.264c-0.008 0.043-0.035 0.064-0.08 0.064-0.016 0-0.039-0.005-0.068-0.016s-0.066-0.023-0.11-0.036-0.098-0.025-0.162-0.036c-0.064-0.01-0.137-0.016-0.22-0.016-0.302 0-0.549 0.093-0.742 0.28s-0.35 0.456-0.47 0.808v2.588h-0.38z"/><path id="path31" d="m98.999 59.832c-0.014 0.014-0.026 0.025-0.038 0.034s-0.029 0.014-0.05 0.014c-0.027 0-0.063-0.018-0.11-0.054-0.046-0.036-0.108-0.075-0.186-0.118-0.077-0.043-0.174-0.082-0.29-0.118s-0.257-0.054-0.422-0.054c-0.229 0-0.433 0.041-0.61 0.122-0.177 0.082-0.327 0.198-0.448 0.35s-0.214 0.336-0.278 0.552-0.096 0.459-0.096 0.728c0 0.28 0.032 0.528 0.098 0.744s0.158 0.398 0.278 0.546 0.265 0.261 0.436 0.338 0.36 0.116 0.568 0.116c0.192 0 0.353-0.022 0.482-0.068s0.236-0.095 0.32-0.148 0.151-0.103 0.2-0.148 0.088-0.068 0.118-0.068c0.034 0 0.061 0.014 0.08 0.04l0.104 0.128c-0.061 0.08-0.139 0.155-0.232 0.224s-0.199 0.129-0.316 0.18-0.245 0.09-0.382 0.118c-0.138 0.028-0.281 0.042-0.43 0.042-0.253 0-0.485-0.046-0.694-0.138s-0.39-0.226-0.54-0.4c-0.151-0.175-0.268-0.389-0.352-0.642s-0.126-0.542-0.126-0.864c0-0.304 0.04-0.581 0.12-0.832 0.08-0.25 0.196-0.466 0.35-0.648 0.153-0.181 0.341-0.322 0.564-0.422 0.222-0.1 0.478-0.15 0.766-0.15 0.259 0 0.489 0.042 0.69 0.124 0.202 0.083 0.377 0.195 0.526 0.336l-0.1 0.136z"/><path id="path33" d="m100.06 63.28v-3.98h0.2c0.045 0 0.078 0.009 0.098 0.028s0.032 0.051 0.034 0.096l0.032 0.84c0.128-0.323 0.298-0.575 0.512-0.758s0.476-0.274 0.788-0.274c0.12 0 0.23 0.013 0.332 0.038 0.101 0.025 0.197 0.062 0.288 0.11l-0.052 0.264c-0.008 0.043-0.035 0.064-0.08 0.064-0.016 0-0.039-0.005-0.068-0.016s-0.066-0.023-0.11-0.036-0.098-0.025-0.162-0.036c-0.064-0.01-0.137-0.016-0.22-0.016-0.302 0-0.549 0.093-0.742 0.28s-0.35 0.456-0.47 0.808v2.588h-0.38z"/><path id="path35" d="m104.79 59.236c0.285 0 0.541 0.049 0.766 0.146s0.415 0.235 0.57 0.414 0.272 0.394 0.354 0.646 0.122 0.534 0.122 0.846-0.041 0.594-0.122 0.844-0.199 0.465-0.354 0.644-0.345 0.316-0.57 0.412c-0.226 0.096-0.481 0.144-0.766 0.144-0.286 0-0.541-0.048-0.766-0.144s-0.416-0.233-0.572-0.412-0.275-0.394-0.356-0.644c-0.082-0.25-0.122-0.532-0.122-0.844s0.041-0.594 0.122-0.846 0.2-0.467 0.356-0.646 0.347-0.317 0.572-0.414c0.226-0.097 0.48-0.146 0.766-0.146zm0 3.796c0.237 0 0.444-0.041 0.622-0.122 0.177-0.081 0.325-0.198 0.444-0.35s0.208-0.335 0.266-0.55 0.088-0.455 0.088-0.722c0-0.264-0.029-0.504-0.088-0.72s-0.147-0.401-0.266-0.554-0.267-0.271-0.444-0.354c-0.178-0.083-0.385-0.124-0.622-0.124s-0.445 0.042-0.622 0.124c-0.177 0.083-0.325 0.201-0.444 0.354s-0.208 0.338-0.268 0.554-0.09 0.456-0.09 0.72c0 0.267 0.03 0.507 0.09 0.722s0.149 0.398 0.268 0.55 0.267 0.269 0.444 0.35 0.385 0.122 0.622 0.122z"/><path id="path37" d="m107.08 59.3h0.292c0.038 0 0.068 0.01 0.092 0.03s0.04 0.042 0.048 0.066l1.004 3.14c0.019 0.062 0.033 0.12 0.044 0.176s0.021 0.112 0.032 0.168c0.013-0.056 0.028-0.112 0.044-0.168s0.035-0.115 0.056-0.176l1.068-3.168c0.019-0.059 0.056-0.088 0.112-0.088h0.156c0.059 0 0.097 0.029 0.116 0.088l1.052 3.168c0.04 0.12 0.072 0.236 0.096 0.348 0.011-0.056 0.022-0.113 0.034-0.17 0.012-0.058 0.029-0.117 0.05-0.178l1.008-3.14c0.021-0.064 0.066-0.096 0.136-0.096h0.28l-1.332 3.98h-0.28c-0.042 0-0.073-0.028-0.092-0.084l-1.092-3.232c-0.014-0.04-0.025-0.08-0.036-0.12s-0.02-0.08-0.028-0.12c-0.008 0.04-0.017 0.08-0.026 0.12s-0.021 0.08-0.034 0.12l-1.104 3.232c-0.016 0.056-0.048 0.084-0.096 0.084h-0.268l-1.332-3.98z"/><path id="path39" d="m116.4 63.28c-0.066 0-0.104-0.035-0.115-0.104l-0.04-0.628c-0.176 0.24-0.383 0.431-0.619 0.572-0.236 0.142-0.501 0.212-0.795 0.212-0.488 0-0.87-0.169-1.144-0.508-0.273-0.338-0.41-0.847-0.41-1.524 0-0.291 0.038-0.562 0.114-0.814s0.188-0.471 0.337-0.656c0.148-0.185 0.33-0.331 0.544-0.438 0.215-0.106 0.463-0.16 0.743-0.16 0.27 0 0.503 0.05 0.701 0.15s0.369 0.246 0.513 0.438v-2.36h0.38v5.82h-0.209zm-1.461-0.256c0.265 0 0.504-0.068 0.717-0.204 0.214-0.136 0.405-0.325 0.573-0.568v-2.1c-0.155-0.227-0.325-0.387-0.511-0.48s-0.396-0.14-0.631-0.14-0.441 0.043-0.617 0.128-0.324 0.206-0.442 0.362c-0.119 0.156-0.208 0.342-0.269 0.56-0.06 0.218-0.09 0.457-0.09 0.718 0 0.592 0.109 1.027 0.328 1.306 0.22 0.278 0.533 0.418 0.942 0.418z"/><path id="path41" d="m121.76 59.796c-0.019 0.037-0.048 0.056-0.088 0.056-0.029 0-0.067-0.017-0.114-0.05s-0.108-0.071-0.184-0.112c-0.076-0.042-0.169-0.079-0.28-0.112-0.11-0.033-0.246-0.05-0.406-0.05-0.144 0-0.275 0.021-0.394 0.062s-0.22 0.096-0.304 0.166c-0.084 0.069-0.149 0.149-0.196 0.241s-0.07 0.188-0.07 0.289c0 0.125 0.032 0.229 0.096 0.312 0.064 0.082 0.148 0.153 0.252 0.211 0.104 0.059 0.222 0.109 0.354 0.152 0.132 0.042 0.268 0.085 0.406 0.128 0.139 0.042 0.274 0.09 0.406 0.142s0.25 0.117 0.354 0.194 0.188 0.172 0.252 0.284 0.096 0.248 0.096 0.408c0 0.173-0.031 0.335-0.094 0.484-0.062 0.149-0.153 0.279-0.272 0.388s-0.265 0.196-0.438 0.26-0.371 0.096-0.592 0.096c-0.28 0-0.521-0.044-0.724-0.134s-0.384-0.206-0.544-0.35l0.092-0.136c0.013-0.021 0.028-0.037 0.044-0.048s0.039-0.016 0.068-0.016c0.035 0 0.077 0.021 0.128 0.064s0.117 0.089 0.198 0.138 0.183 0.095 0.304 0.138c0.122 0.042 0.271 0.064 0.45 0.064 0.168 0 0.316-0.023 0.444-0.07 0.128-0.046 0.235-0.11 0.32-0.19s0.15-0.174 0.194-0.282 0.066-0.222 0.066-0.342c0-0.133-0.032-0.244-0.096-0.332s-0.148-0.163-0.252-0.224c-0.104-0.062-0.222-0.114-0.354-0.156s-0.268-0.085-0.408-0.128c-0.14-0.042-0.276-0.089-0.408-0.14s-0.25-0.115-0.354-0.192-0.188-0.171-0.252-0.282c-0.064-0.11-0.096-0.249-0.096-0.414 0-0.142 0.031-0.277 0.092-0.408s0.148-0.245 0.262-0.344c0.113-0.099 0.251-0.177 0.414-0.236s0.345-0.088 0.548-0.088c0.243 0 0.458 0.035 0.646 0.105s0.361 0.178 0.518 0.322l-0.084 0.132z"/><path id="path43" d="m123.71 57.928c0 0.048-0.01 0.093-0.03 0.134s-0.046 0.078-0.078 0.11-0.069 0.057-0.112 0.076c-0.042 0.019-0.088 0.028-0.136 0.028s-0.094-0.009-0.136-0.028-0.08-0.044-0.112-0.076-0.058-0.069-0.076-0.11c-0.019-0.042-0.028-0.086-0.028-0.134s0.009-0.094 0.028-0.138 0.044-0.082 0.076-0.114 0.069-0.057 0.112-0.076c0.042-0.019 0.088-0.028 0.136-0.028s0.093 0.009 0.136 0.028 0.08 0.044 0.112 0.076 0.058 0.07 0.078 0.114 0.03 0.09 0.03 0.138zm-0.167 1.372v3.98h-0.38v-3.98h0.38z"/><path id="path45" d="m124.99 63.28v-3.98h0.208c0.069 0 0.109 0.033 0.12 0.1l0.036 0.576c0.077-0.109 0.16-0.209 0.248-0.3s0.182-0.168 0.282-0.234 0.207-0.116 0.32-0.152 0.233-0.054 0.358-0.054c0.291 0 0.522 0.084 0.696 0.254s0.291 0.405 0.352 0.706c0.048-0.166 0.115-0.308 0.202-0.428 0.086-0.12 0.186-0.219 0.297-0.298s0.234-0.137 0.366-0.176c0.131-0.039 0.267-0.058 0.405-0.058 0.197 0 0.374 0.033 0.531 0.098s0.291 0.162 0.401 0.29 0.195 0.285 0.253 0.472c0.059 0.187 0.088 0.4 0.088 0.64v2.544h-0.38v-2.544c0-0.389-0.084-0.686-0.252-0.89s-0.408-0.306-0.72-0.306c-0.139 0-0.271 0.025-0.398 0.076s-0.239 0.126-0.336 0.226c-0.098 0.1-0.175 0.225-0.232 0.374-0.058 0.149-0.086 0.323-0.086 0.52v2.544h-0.38v-2.544c0-0.387-0.077-0.683-0.232-0.888s-0.38-0.308-0.676-0.308c-0.216 0-0.416 0.065-0.6 0.194s-0.348 0.309-0.492 0.538v3.008h-0.379z"/><path id="path47" d="m131.67 59.3v2.544c0 0.374 0.085 0.666 0.257 0.878 0.171 0.212 0.432 0.318 0.782 0.318 0.26 0 0.502-0.066 0.727-0.198s0.427-0.315 0.606-0.55v-2.992h0.38v3.98h-0.209c-0.074 0-0.112-0.035-0.115-0.104l-0.036-0.592c-0.184 0.229-0.397 0.413-0.639 0.552s-0.511 0.208-0.807 0.208c-0.222 0-0.416-0.035-0.581-0.104s-0.303-0.169-0.413-0.3c-0.109-0.131-0.192-0.288-0.248-0.472s-0.084-0.392-0.084-0.624v-2.544h0.38z"/><path id="path49" d="m136.25 57.46v5.82h-0.38v-5.82h0.38z"/><path id="path51" d="m140.24 63.28c-0.08 0-0.129-0.037-0.148-0.112l-0.056-0.508c-0.109 0.107-0.218 0.203-0.326 0.288s-0.221 0.157-0.338 0.216-0.244 0.104-0.38 0.134c-0.136 0.031-0.285 0.046-0.448 0.046-0.136 0-0.268-0.02-0.396-0.06s-0.242-0.101-0.34-0.184c-0.099-0.083-0.178-0.188-0.238-0.318s-0.09-0.285-0.09-0.466c0-0.168 0.048-0.324 0.144-0.468s0.246-0.269 0.45-0.376c0.204-0.106 0.467-0.192 0.788-0.256s0.707-0.102 1.158-0.112v-0.416c0-0.368-0.079-0.651-0.238-0.85s-0.394-0.298-0.706-0.298c-0.192 0-0.355 0.027-0.49 0.08-0.135 0.054-0.249 0.112-0.342 0.176s-0.169 0.123-0.228 0.176c-0.059 0.054-0.108 0.08-0.148 0.08-0.053 0-0.093-0.024-0.12-0.072l-0.068-0.116c0.208-0.208 0.427-0.365 0.656-0.472 0.229-0.106 0.489-0.16 0.78-0.16 0.213 0 0.4 0.034 0.56 0.102s0.292 0.165 0.398 0.292c0.105 0.126 0.185 0.28 0.238 0.46 0.054 0.18 0.08 0.38 0.08 0.602v2.592h-0.152zm-1.6-0.212c0.155 0 0.297-0.017 0.426-0.05s0.249-0.08 0.36-0.14 0.214-0.131 0.31-0.214 0.19-0.172 0.284-0.268v-1.036c-0.378 0.011-0.705 0.039-0.978 0.086s-0.499 0.11-0.676 0.19-0.308 0.175-0.392 0.286-0.126 0.237-0.126 0.378c0 0.133 0.022 0.249 0.066 0.346s0.102 0.177 0.174 0.24c0.072 0.062 0.156 0.109 0.252 0.138s0.196 0.044 0.3 0.044z"/><path id="path53" d="m142.72 63.344c-0.27 0-0.479-0.075-0.628-0.224s-0.224-0.38-0.224-0.692v-2.72h-0.572c-0.029 0-0.054-0.008-0.072-0.024-0.019-0.016-0.028-0.039-0.028-0.068v-0.148l0.68-0.048 0.095-1.424c0.003-0.024 0.013-0.045 0.03-0.064s0.04-0.028 0.069-0.028h0.178v1.52h1.252v0.284h-1.252v2.7c0 0.109 0.014 0.204 0.042 0.282 0.028 0.079 0.067 0.143 0.116 0.194s0.107 0.088 0.174 0.112 0.139 0.036 0.216 0.036c0.096 0 0.179-0.014 0.248-0.042s0.129-0.059 0.18-0.092c0.051-0.034 0.092-0.064 0.124-0.092s0.058-0.042 0.076-0.042c0.021 0 0.042 0.014 0.064 0.04l0.104 0.168c-0.102 0.112-0.23 0.202-0.386 0.27s-0.318 0.102-0.486 0.102z"/><path id="path55" d="m145.18 57.928c0 0.048-0.01 0.093-0.03 0.134s-0.046 0.078-0.078 0.11-0.069 0.057-0.112 0.076c-0.042 0.019-0.088 0.028-0.136 0.028s-0.094-0.009-0.136-0.028-0.08-0.044-0.112-0.076-0.058-0.069-0.076-0.11c-0.019-0.042-0.028-0.086-0.028-0.134s0.009-0.094 0.028-0.138 0.044-0.082 0.076-0.114 0.069-0.057 0.112-0.076c0.042-0.019 0.088-0.028 0.136-0.028s0.093 0.009 0.136 0.028 0.08 0.044 0.112 0.076 0.058 0.07 0.078 0.114 0.03 0.09 0.03 0.138zm-0.168 1.372v3.98h-0.38v-3.98h0.38z"/><path id="path57" d="m147.98 59.236c0.285 0 0.541 0.049 0.766 0.146s0.415 0.235 0.57 0.414 0.272 0.394 0.354 0.646 0.122 0.534 0.122 0.846-0.041 0.594-0.122 0.844-0.199 0.465-0.354 0.644-0.345 0.316-0.57 0.412c-0.226 0.096-0.481 0.144-0.766 0.144-0.286 0-0.541-0.048-0.766-0.144s-0.416-0.233-0.572-0.412-0.275-0.394-0.356-0.644c-0.082-0.25-0.122-0.532-0.122-0.844s0.041-0.594 0.122-0.846 0.2-0.467 0.356-0.646 0.347-0.317 0.572-0.414 0.48-0.146 0.766-0.146zm0 3.796c0.237 0 0.444-0.041 0.622-0.122 0.177-0.081 0.325-0.198 0.444-0.35s0.208-0.335 0.266-0.55 0.088-0.455 0.088-0.722c0-0.264-0.029-0.504-0.088-0.72s-0.147-0.401-0.266-0.554-0.267-0.271-0.444-0.354c-0.178-0.083-0.385-0.124-0.622-0.124s-0.445 0.042-0.622 0.124c-0.177 0.083-0.325 0.201-0.444 0.354s-0.208 0.338-0.268 0.554-0.09 0.456-0.09 0.72c0 0.267 0.03 0.507 0.09 0.722s0.149 0.398 0.268 0.55 0.267 0.269 0.444 0.35 0.385 0.122 0.622 0.122z"/><path id="path59" d="m150.83 63.28v-3.98h0.208c0.069 0 0.109 0.033 0.12 0.1l0.036 0.6c0.181-0.229 0.393-0.414 0.634-0.554s0.51-0.21 0.806-0.21c0.218 0 0.411 0.035 0.578 0.104s0.305 0.169 0.414 0.3 0.192 0.288 0.248 0.472 0.084 0.392 0.084 0.624v2.544h-0.38v-2.544c0-0.374-0.085-0.666-0.256-0.878s-0.432-0.318-0.784-0.318c-0.261 0-0.504 0.067-0.728 0.202s-0.424 0.319-0.6 0.554v2.984h-0.38z"/></g><path id="path61" fill="#625d53" d="m44.314 30.135c0-0.346 0.104-0.673 0.309-0.98 0.203-0.305 0.49-0.572 0.857-0.801s0.805-0.406 1.311-0.536c0.508-0.13 1.061-0.193 1.66-0.193 1.17 0 2.033 0.309 2.588 0.929s0.828 1.604 0.824 2.951l-0.023 4.695c0 0.219-0.006 0.438-0.016 0.658-0.01 0.222-0.031 0.477-0.066 0.762l1.482-0.081v0.877h-2.992c-0.043-0.238-0.072-0.445-0.09-0.623-0.021-0.178-0.039-0.365-0.053-0.562-0.471 0.471-0.98 0.841-1.539 1.112-0.553 0.273-1.139 0.408-1.758 0.408-0.523 0-0.982-0.062-1.375-0.188-0.391-0.127-0.715-0.303-0.975-0.526-0.26-0.226-0.451-0.487-0.582-0.79-0.129-0.303-0.193-0.63-0.193-0.976 0-0.43 0.094-0.821 0.281-1.175 0.188-0.353 0.438-0.668 0.754-0.943 0.316-0.276 0.688-0.515 1.109-0.717 0.42-0.199 0.869-0.364 1.342-0.494 0.475-0.13 0.955-0.224 1.449-0.281 0.496-0.058 0.977-0.083 1.447-0.077v-1.307c0-0.36-0.023-0.711-0.062-1.051-0.043-0.34-0.133-0.65-0.271-0.929-0.139-0.28-0.357-0.501-0.654-0.664-0.295-0.164-0.637-0.245-1.025-0.245-0.225 0-0.438 0.019-0.643 0.057-0.203 0.037-0.404 0.1-0.602 0.188s-0.377 0.204-0.537 0.347c-0.16 0.144-0.289 0.313-0.395 0.511 0.105 0.115 0.172 0.244 0.211 0.383 0.039 0.14 0.059 0.274 0.059 0.404 0 0.081-0.02 0.174-0.055 0.279-0.033 0.105-0.086 0.204-0.158 0.297-0.072 0.091-0.162 0.167-0.273 0.225-0.115 0.058-0.264 0.087-0.457 0.087-0.271 0-0.486-0.102-0.648-0.302-0.159-0.2-0.241-0.443-0.241-0.729zm5.741 3.166c-0.32 0.015-0.652 0.043-0.998 0.087-0.34 0.046-0.678 0.112-1.008 0.204-0.332 0.091-0.643 0.209-0.936 0.353-0.293 0.143-0.547 0.312-0.766 0.51-0.217 0.197-0.389 0.425-0.51 0.685-0.125 0.26-0.178 0.55-0.164 0.877 0.006 0.26 0.057 0.485 0.15 0.68 0.09 0.194 0.209 0.354 0.355 0.48 0.146 0.125 0.314 0.222 0.504 0.286 0.191 0.064 0.396 0.096 0.615 0.096 0.279 0 0.537-0.026 0.783-0.081 0.244-0.053 0.48-0.135 0.701-0.24 0.221-0.106 0.436-0.233 0.645-0.382 0.207-0.149 0.416-0.325 0.627-0.521v-3.034zm12.261-3.779c-0.094-0.245-0.234-0.44-0.422-0.587-0.182-0.146-0.379-0.261-0.596-0.342-0.213-0.082-0.428-0.135-0.643-0.159-0.215-0.023-0.395-0.034-0.533-0.034-0.479 0-0.924 0.096-1.336 0.29s-0.768 0.479-1.066 0.854c-0.299 0.373-0.533 0.84-0.709 1.397-0.174 0.559-0.262 1.198-0.262 1.92 0 0.694 0.088 1.336 0.262 1.924 0.176 0.589 0.416 1.099 0.73 1.523 0.314 0.426 0.689 0.757 1.131 0.995 0.445 0.237 0.936 0.357 1.471 0.357 0.326 0 0.652-0.046 0.971-0.14 0.322-0.091 0.625-0.218 0.908-0.382 0.287-0.163 0.553-0.353 0.793-0.571s0.445-0.452 0.619-0.704l0.537 0.418c-0.277 0.435-0.596 0.808-0.953 1.117s-0.732 0.567-1.121 0.767c-0.395 0.201-0.789 0.348-1.188 0.444-0.396 0.096-0.773 0.142-1.127 0.142-0.709 0-1.377-0.12-2-0.36-0.625-0.243-1.174-0.594-1.645-1.053-0.471-0.458-0.84-1.022-1.113-1.69-0.271-0.666-0.408-1.425-0.408-2.275 0-0.482 0.062-0.961 0.18-1.431s0.291-0.918 0.516-1.343 0.496-0.82 0.816-1.185c0.318-0.364 0.684-0.679 1.086-0.944 0.404-0.265 0.85-0.473 1.326-0.623 0.48-0.149 0.99-0.224 1.529-0.224 0.578 0 1.104 0.071 1.58 0.214 0.479 0.144 0.887 0.334 1.225 0.572 0.342 0.237 0.605 0.512 0.789 0.821 0.182 0.31 0.273 0.636 0.273 0.976 0 0.299-0.082 0.556-0.25 0.771-0.166 0.214-0.404 0.324-0.719 0.332-0.184 0.007-0.338-0.021-0.459-0.087-0.125-0.064-0.221-0.146-0.297-0.24-0.072-0.095-0.131-0.199-0.164-0.311-0.033-0.113-0.047-0.213-0.047-0.302 0-0.136 0.018-0.278 0.064-0.429 0.047-0.149 0.129-0.289 0.252-0.418zm11.026 0c-0.094-0.245-0.232-0.44-0.42-0.587-0.182-0.146-0.379-0.261-0.596-0.342-0.213-0.082-0.428-0.135-0.645-0.159-0.213-0.023-0.393-0.034-0.533-0.034-0.477 0-0.922 0.096-1.334 0.29s-0.768 0.479-1.068 0.854c-0.297 0.373-0.533 0.84-0.707 1.397-0.174 0.559-0.264 1.198-0.264 1.92 0 0.694 0.09 1.336 0.264 1.924 0.174 0.589 0.414 1.099 0.729 1.523 0.316 0.426 0.689 0.757 1.133 0.995 0.443 0.237 0.934 0.357 1.471 0.357 0.326 0 0.652-0.046 0.969-0.14 0.322-0.091 0.625-0.218 0.908-0.382 0.289-0.163 0.553-0.353 0.793-0.571s0.447-0.452 0.621-0.704l0.537 0.418c-0.279 0.435-0.596 0.808-0.953 1.117s-0.732 0.567-1.123 0.767c-0.393 0.201-0.787 0.348-1.186 0.444-0.396 0.096-0.773 0.142-1.127 0.142-0.709 0-1.377-0.12-2.002-0.36-0.623-0.243-1.172-0.594-1.643-1.053-0.471-0.458-0.84-1.022-1.115-1.69-0.271-0.666-0.408-1.425-0.408-2.275 0-0.482 0.062-0.961 0.18-1.431 0.119-0.47 0.291-0.918 0.518-1.343 0.223-0.425 0.494-0.82 0.816-1.185 0.316-0.364 0.682-0.679 1.086-0.944s0.848-0.473 1.326-0.623c0.48-0.149 0.99-0.224 1.527-0.224 0.58 0 1.105 0.071 1.582 0.214 0.477 0.144 0.887 0.334 1.225 0.572 0.342 0.237 0.605 0.512 0.787 0.821 0.184 0.31 0.275 0.636 0.275 0.976 0 0.299-0.082 0.556-0.25 0.771-0.166 0.214-0.404 0.324-0.719 0.332-0.186 0.007-0.338-0.021-0.459-0.087-0.125-0.064-0.221-0.146-0.299-0.24-0.07-0.095-0.129-0.199-0.162-0.311-0.033-0.113-0.049-0.213-0.049-0.302 0-0.136 0.02-0.278 0.064-0.429 0.048-0.149 0.13-0.289 0.251-0.418zm11.254 1.187c0-0.341 0.006-0.632 0.021-0.875 0.012-0.241 0.037-0.481 0.082-0.721l-1.504 0.062v-0.857h0.643c0.301 0 0.559-0.016 0.77-0.047 0.209-0.03 0.389-0.073 0.537-0.127 0.152-0.055 0.275-0.114 0.375-0.179 0.096-0.065 0.188-0.135 0.27-0.209h0.604l-0.021 7.903c0 0.108 0 0.245-0.006 0.413-0.002 0.166-0.006 0.341-0.014 0.521s-0.016 0.36-0.023 0.54c-0.014 0.181-0.025 0.342-0.039 0.485l1.504-0.081v0.877h-2.994c-0.033-0.238-0.062-0.457-0.086-0.658-0.023-0.2-0.043-0.399-0.059-0.599-0.215 0.219-0.455 0.425-0.725 0.62-0.264 0.191-0.543 0.36-0.842 0.504-0.295 0.142-0.6 0.257-0.912 0.342-0.312 0.086-0.625 0.127-0.93 0.127-0.572 0-1.074-0.074-1.502-0.229-0.428-0.153-0.785-0.405-1.07-0.762-0.287-0.353-0.5-0.821-0.645-1.402-0.145-0.582-0.213-1.305-0.213-2.17v-3.717c0-0.218 0.002-0.438 0.012-0.665 0.004-0.223 0.029-0.455 0.068-0.694l-1.438 0.062v-0.857h0.652c0.293 0 0.543-0.016 0.754-0.047 0.213-0.03 0.393-0.073 0.543-0.127 0.15-0.055 0.275-0.114 0.371-0.179 0.102-0.065 0.191-0.135 0.273-0.209h0.602v6.378c0 0.605 0.041 1.134 0.121 1.578 0.082 0.447 0.215 0.819 0.393 1.114 0.182 0.296 0.412 0.515 0.701 0.654 0.283 0.139 0.635 0.209 1.053 0.209 0.264 0 0.523-0.044 0.777-0.133 0.258-0.089 0.5-0.206 0.73-0.357 0.232-0.149 0.449-0.319 0.648-0.51 0.203-0.192 0.375-0.396 0.518-0.614v-5.364zm27.338-1.941c-0.266-0.007-0.535 0.042-0.805 0.147-0.273 0.106-0.543 0.261-0.801 0.465-0.266 0.205-0.51 0.45-0.74 0.735-0.234 0.286-0.443 0.602-0.625 0.949l0.02 5.136c0 0.279 0 0.526-0.01 0.74-0.006 0.214-0.029 0.442-0.072 0.68l1.318-0.062v0.858h-4.287v-0.623c0.318 0 0.561-0.062 0.73-0.189 0.168-0.125 0.287-0.3 0.359-0.526 0.076-0.223 0.121-0.492 0.129-0.805 0.01-0.314 0.016-0.658 0.016-1.033v-4.778c0-0.217 0.004-0.437 0.01-0.658 0.01-0.221 0.033-0.45 0.072-0.689l-1.48 0.062v-0.857h0.645c0.297 0 0.547-0.016 0.744-0.047 0.197-0.03 0.363-0.073 0.494-0.127 0.135-0.055 0.246-0.114 0.332-0.179 0.09-0.065 0.174-0.135 0.254-0.209h0.605c0.02 0.217 0.039 0.488 0.053 0.812 0.02 0.323 0.035 0.74 0.049 1.25 0.156-0.258 0.355-0.519 0.602-0.78 0.244-0.262 0.523-0.497 0.826-0.705 0.307-0.208 0.639-0.377 0.992-0.511 0.352-0.132 0.717-0.198 1.092-0.198 0.189 0 0.375 0.025 0.559 0.076 0.178 0.052 0.336 0.131 0.469 0.24 0.131 0.109 0.236 0.245 0.318 0.408s0.125 0.36 0.125 0.592c0 0.095-0.02 0.201-0.057 0.317-0.037 0.115-0.098 0.224-0.184 0.327-0.086 0.101-0.191 0.186-0.322 0.254-0.129 0.068-0.287 0.103-0.48 0.103-0.156 0-0.297-0.034-0.422-0.103s-0.23-0.154-0.318-0.261c-0.086-0.105-0.146-0.228-0.182-0.367-0.04-0.141-0.05-0.288-0.028-0.444zm3.328 1.367c0-0.346 0.104-0.673 0.307-0.98 0.205-0.305 0.49-0.572 0.857-0.801 0.369-0.229 0.807-0.406 1.312-0.536 0.508-0.13 1.059-0.193 1.66-0.193 1.17 0 2.033 0.309 2.588 0.929s0.828 1.604 0.824 2.951l-0.025 4.696c0 0.219-0.004 0.438-0.014 0.658-0.01 0.222-0.031 0.477-0.068 0.762l1.482-0.081v0.877h-2.99c-0.043-0.238-0.072-0.445-0.092-0.623-0.021-0.178-0.037-0.365-0.053-0.562-0.471 0.471-0.98 0.841-1.537 1.112-0.553 0.273-1.139 0.408-1.758 0.408-0.523 0-0.982-0.062-1.375-0.188-0.391-0.127-0.715-0.303-0.975-0.526-0.26-0.226-0.453-0.487-0.582-0.79s-0.195-0.63-0.195-0.976c0-0.43 0.094-0.821 0.281-1.175 0.188-0.353 0.438-0.668 0.756-0.943 0.316-0.276 0.686-0.515 1.109-0.717 0.42-0.199 0.869-0.364 1.34-0.494 0.477-0.13 0.957-0.224 1.451-0.281s0.975-0.083 1.447-0.077v-1.307c0-0.36-0.025-0.711-0.062-1.051-0.045-0.34-0.133-0.65-0.271-0.929-0.141-0.28-0.359-0.501-0.654-0.664-0.295-0.164-0.637-0.245-1.025-0.245-0.227 0-0.438 0.019-0.645 0.057-0.201 0.037-0.402 0.1-0.6 0.188s-0.377 0.204-0.539 0.347c-0.158 0.144-0.287 0.313-0.395 0.511 0.107 0.115 0.174 0.244 0.213 0.383 0.037 0.14 0.057 0.274 0.057 0.404 0 0.081-0.02 0.174-0.053 0.279s-0.086 0.204-0.158 0.297c-0.072 0.091-0.164 0.167-0.273 0.225-0.115 0.058-0.266 0.087-0.457 0.087-0.271 0-0.488-0.102-0.648-0.302-0.158-0.201-0.24-0.444-0.24-0.73zm5.74 3.166c-0.318 0.015-0.65 0.043-0.996 0.087-0.342 0.046-0.678 0.112-1.01 0.204-0.33 0.091-0.641 0.209-0.934 0.353-0.293 0.143-0.549 0.312-0.766 0.51s-0.391 0.425-0.51 0.685c-0.125 0.26-0.178 0.55-0.164 0.877 0.006 0.26 0.055 0.485 0.148 0.68 0.092 0.194 0.209 0.354 0.355 0.48 0.146 0.125 0.316 0.222 0.506 0.286 0.191 0.064 0.396 0.096 0.615 0.096 0.277 0 0.537-0.026 0.783-0.081 0.244-0.053 0.48-0.135 0.701-0.24 0.221-0.106 0.434-0.233 0.643-0.382 0.207-0.149 0.416-0.325 0.627-0.521v-3.034zm3.994-5.34c0.367-0.008 0.699-0.107 0.998-0.302 0.301-0.193 0.564-0.435 0.791-0.725 0.23-0.289 0.422-0.604 0.578-0.944s0.279-0.66 0.369-0.961h0.713c0 0.559-0.002 1.08-0.006 1.563-0.002 0.482-0.004 0.939-0.004 1.368h3.521v0.816l-3.521 0.041c-0.008 0.905-0.01 1.678-0.01 2.318 0 0.639-0.002 1.173-0.008 1.603-0.002 0.43-0.004 0.769-0.004 1.016 0 0.25 0 0.438-0.006 0.567-0.002 0.13-0.004 0.214-0.004 0.25v0.066c0 0.477 0.027 0.896 0.076 1.262 0.053 0.362 0.141 0.67 0.26 0.918 0.125 0.249 0.287 0.435 0.486 0.562 0.201 0.125 0.455 0.188 0.762 0.188 0.359 0 0.717-0.108 1.07-0.326 0.354-0.217 0.668-0.526 0.939-0.928l0.562 0.459c-0.309 0.464-0.609 0.826-0.912 1.088s-0.592 0.459-0.865 0.591c-0.271 0.133-0.523 0.217-0.76 0.25-0.234 0.034-0.441 0.051-0.617 0.051-0.211 0-0.428-0.017-0.648-0.051-0.221-0.033-0.439-0.101-0.654-0.199-0.213-0.099-0.416-0.237-0.602-0.418-0.188-0.18-0.352-0.413-0.496-0.699s-0.254-0.634-0.336-1.042c-0.082-0.409-0.121-0.892-0.113-1.449l0.041-6.044-1.602 0.01v-0.899zm18.051 4.288-7.363 0.122c-0.006 0.805 0.057 1.535 0.188 2.191 0.127 0.653 0.332 1.213 0.609 1.677 0.279 0.464 0.639 0.821 1.076 1.073 0.443 0.253 0.967 0.378 1.582 0.378 0.326 0 0.658-0.044 0.998-0.133 0.342-0.089 0.668-0.211 0.986-0.365 0.316-0.153 0.605-0.338 0.873-0.555 0.266-0.214 0.486-0.446 0.664-0.691l0.51 0.418c-0.287 0.435-0.617 0.805-0.996 1.107s-0.768 0.55-1.174 0.739c-0.406 0.192-0.812 0.329-1.221 0.414-0.408 0.086-0.791 0.127-1.143 0.127-0.725 0-1.395-0.127-2.016-0.387-0.625-0.26-1.164-0.63-1.619-1.112-0.457-0.483-0.818-1.066-1.076-1.747-0.266-0.68-0.395-1.445-0.395-2.296 0-0.736 0.125-1.439 0.379-2.109 0.25-0.67 0.607-1.265 1.072-1.782 0.461-0.517 1.016-0.929 1.662-1.235 0.648-0.307 1.365-0.459 2.154-0.459 0.58 0 1.125 0.095 1.639 0.286 0.514 0.189 0.963 0.476 1.354 0.857 0.389 0.381 0.695 0.862 0.916 1.444 0.228 0.583 0.341 1.262 0.341 2.038zm-4.227-3.799c-0.816 0-1.492 0.239-2.021 0.718-0.531 0.478-0.883 1.254-1.053 2.325h5.328c0-0.366-0.039-0.73-0.119-1.094-0.082-0.363-0.215-0.688-0.395-0.977s-0.414-0.523-0.699-0.702-0.632-0.27-1.041-0.27z"/><path id="path63" fill="#e84e0f" d="m96.729 38.156c0.158 0.308 0.238 0.655 0.238 1.059 0 0.868-0.232 1.507-0.713 1.952-0.49 0.46-1.068 0.684-1.768 0.684-0.531 0-0.988-0.105-1.398-0.324-0.406-0.219-0.742-0.512-1.025-0.893-0.281-0.374-0.5-0.837-0.65-1.377-0.152-0.537-0.229-1.131-0.229-1.767 0-0.633 0.088-1.376 0.27-2.271 0.186-0.869 0.449-1.771 0.781-2.68 0.346-0.92 0.754-1.806 1.209-2.627 0.383-0.685 0.803-1.282 1.252-1.786 0.076 0.416 0.201 0.814 0.387 1.188-0.098 0.17-0.198 0.343-0.305 0.543-0.334 0.631-0.625 1.325-0.887 2.125-0.258 0.782-0.459 1.604-0.598 2.441-0.141 0.87-0.156 1.739-0.049 2.583l0.074 0.572 0.525-0.24c0.367-0.168 0.729-0.254 1.068-0.254 0.051 0 0.1 0.002 0.148 0.006 0.375 0.027 0.705 0.133 1.006 0.322 0.271 0.177 0.49 0.421 0.664 0.744zm5.707-10.929c-0.16-0.553-0.375-1.004-0.662-1.385-0.279-0.383-0.613-0.676-1.02-0.893-0.412-0.215-0.881-0.324-1.395-0.324-0.705 0-1.283 0.223-1.768 0.684-0.48 0.448-0.713 1.088-0.713 1.955 0 0.395 0.082 0.752 0.242 1.064 0.156 0.305 0.379 0.553 0.666 0.74 0.277 0.184 0.613 0.29 0.998 0.318 0.049 0.003 0.098 0.005 0.148 0.005 0.338 0 0.699-0.085 1.072-0.253l0.527-0.236 0.068 0.573c0.105 0.866 0.088 1.735-0.055 2.58-0.139 0.827-0.336 1.647-0.592 2.443-0.264 0.785-0.562 1.498-0.893 2.119-0.102 0.194-0.201 0.37-0.303 0.542 0.189 0.383 0.316 0.779 0.391 1.189 0.451-0.506 0.872-1.104 1.25-1.78 0.471-0.868 0.879-1.757 1.211-2.639 0.334-0.908 0.596-1.81 0.777-2.678s0.273-1.63 0.273-2.265c0.004-0.617-0.074-1.212-0.222-1.759z"/></g></svg>